<svg width="98" height="64" viewBox="0 0 98 64" fill="none" xmlns="http://www.w3.org/2000/svg">
<path d="M41.272 55.1759C37.1654 60.9839 31.328 63.8879 23.76 63.8879C16.192 63.8879 10.3547 60.9839 6.24804 55.1759C2.08271 49.3092 3.92199e-05 41.5652 3.92199e-05 31.9439C3.92199e-05 22.3226 2.08271 14.5786 6.24804 8.71189C10.3547 2.90389 16.192 -0.000108719 23.76 -0.000108719C31.328 -0.000108719 37.1654 2.90389 41.272 8.71189C45.4374 14.5786 47.52 22.3226 47.52 31.9439C47.52 41.5652 45.4374 49.3092 41.272 55.1759ZM8.18404 31.9439C8.18404 39.5706 9.53337 45.4666 12.232 49.6319C14.9307 53.7972 18.7734 55.8799 23.76 55.8799C28.7467 55.8799 32.5894 53.7972 35.288 49.6319C38.0454 45.4666 39.424 39.5706 39.424 31.9439C39.424 24.3172 38.0454 18.4212 35.288 14.2559C32.5894 10.0319 28.7467 7.91989 23.76 7.91989C18.7734 7.91989 14.9307 10.0026 12.232 14.1679C9.53337 18.3332 8.18404 24.2586 8.18404 31.9439ZM50.983 6.77589L67.175 1.14389H74.215V62.7439H66.119V9.94389L53.007 13.8159L50.983 6.77589ZM91.7662 63.7119C90.1822 63.7119 88.8328 63.1546 87.7182 62.0399C86.6035 60.9252 86.0462 59.5759 86.0462 57.9919C86.0462 56.4079 86.6035 55.0586 87.7182 53.9439C88.8328 52.8292 90.1822 52.2719 91.7662 52.2719C93.4088 52.2719 94.7582 52.8292 95.8142 53.9439C96.9288 55.0586 97.4862 56.4079 97.4862 57.9919C97.4862 59.5759 96.9288 60.9252 95.8142 62.0399C94.7582 63.1546 93.4088 63.7119 91.7662 63.7119Z" fill="#75BF7A"/>
</svg>
