<svg width="114" height="64" viewBox="0 0 114 64" fill="none" xmlns="http://www.w3.org/2000/svg">
<path d="M41.272 55.1761C37.1654 60.9841 31.328 63.8881 23.76 63.8881C16.192 63.8881 10.3547 60.9841 6.24804 55.1761C2.08271 49.3095 3.92199e-05 41.5655 3.92199e-05 31.9441C3.92199e-05 22.3228 2.08271 14.5788 6.24804 8.71214C10.3547 2.90414 16.192 0.000135422 23.76 0.000135422C31.328 0.000135422 37.1654 2.90414 41.272 8.71214C45.4374 14.5788 47.52 22.3228 47.52 31.9441C47.52 41.5655 45.4374 49.3095 41.272 55.1761ZM8.18404 31.9441C8.18404 39.5708 9.53337 45.4668 12.232 49.6321C14.9307 53.7975 18.7734 55.8801 23.76 55.8801C28.7467 55.8801 32.5894 53.7975 35.288 49.6321C38.0454 45.4668 39.424 39.5708 39.424 31.9441C39.424 24.3175 38.0454 18.4215 35.288 14.2561C32.5894 10.0321 28.7467 7.92014 23.76 7.92014C18.7734 7.92014 14.9307 10.0028 12.232 14.1681C9.53337 18.3335 8.18404 24.2588 8.18404 31.9441ZM93.2965 62.7441H53.5205V56.0561L75.2565 33.8801C81.0645 28.0721 83.9685 23.0855 83.9685 18.9201C83.9685 15.5175 82.9125 12.8481 80.8005 10.9121C78.7472 8.91747 76.1659 7.92014 73.0565 7.92014C67.2485 7.92014 63.0245 10.6775 60.3845 16.1921L53.5205 12.1441C55.3979 8.21347 58.0379 5.22147 61.4405 3.16814C64.8432 1.05614 68.6859 0.000135422 72.9685 0.000135422C78.1899 0.000135422 82.6779 1.70147 86.4325 5.10414C90.2459 8.56547 92.1525 13.1415 92.1525 18.8321C92.1525 25.0508 88.4859 31.8268 81.1525 39.1601L65.4005 54.8241H93.2965V62.7441ZM107.407 63.7121C105.823 63.7121 104.473 63.1548 103.359 62.0401C102.244 60.9255 101.687 59.5761 101.687 57.9921C101.687 56.4081 102.244 55.0588 103.359 53.9441C104.473 52.8295 105.823 52.2721 107.407 52.2721C109.049 52.2721 110.399 52.8295 111.455 53.9441C112.569 55.0588 113.127 56.4081 113.127 57.9921C113.127 59.5761 112.569 60.9255 111.455 62.0401C110.399 63.1548 109.049 63.7121 107.407 63.7121Z" fill="#75BF7A"/>
</svg>
