<svg width="62" height="62" viewBox="0 0 62 62" fill="none" xmlns="http://www.w3.org/2000/svg">
<path d="M3.00146 19.231L8.72021 24.98L8.82959 25.0894L8.79053 25.2397C8.31266 27.0617 8.07279 28.9748 8.07275 30.9497C8.07275 43.5691 18.33 53.8274 30.98 53.8276C43.5997 53.8276 53.8579 43.5694 53.8579 30.9497C53.8579 29.0056 53.6181 27.1227 53.1401 25.3003L53.1011 25.1499L53.2104 25.0405L58.9292 19.2915L59.2163 19.0024L59.3706 19.3794C60.8363 22.952 61.6303 26.86 61.6304 30.9497C61.6304 47.8621 47.8621 61.6304 30.9497 61.6304C14.0375 61.6301 0.27002 47.862 0.27002 30.9497C0.270076 26.8284 1.09425 22.9209 2.55908 19.3198L2.71338 18.9419L3.00146 19.231ZM30.9497 0.27002C41.0548 0.27002 50.0299 5.18583 55.6157 12.7251L55.7544 12.9126L50.1528 18.5142L49.9702 18.2407C46.5006 13.0661 40.967 9.35887 34.5386 8.34229V8.34131C33.3731 8.16209 32.1765 8.07275 30.9497 8.07275C29.7227 8.07277 28.5264 8.16202 27.3608 8.34131C20.9622 9.35809 15.4297 13.0366 11.9604 18.2104L11.7778 18.4839L6.34033 13.0464L6.17529 12.8823L6.31494 12.6948C11.9009 5.15535 20.8755 0.270157 30.9497 0.27002Z" fill="#75BF7A" stroke="#75BF7A" stroke-width="0.540615"/>
</svg>
