<svg width="112" height="64" viewBox="0 0 112 64" fill="none" xmlns="http://www.w3.org/2000/svg">
<path d="M41.272 55.1761C37.1654 60.9841 31.328 63.8881 23.76 63.8881C16.192 63.8881 10.3547 60.9841 6.24804 55.1761C2.08271 49.3095 3.92199e-05 41.5655 3.92199e-05 31.9441C3.92199e-05 22.3228 2.08271 14.5788 6.24804 8.71214C10.3547 2.90414 16.192 0.000135422 23.76 0.000135422C31.328 0.000135422 37.1654 2.90414 41.272 8.71214C45.4374 14.5788 47.52 22.3228 47.52 31.9441C47.52 41.5655 45.4374 49.3095 41.272 55.1761ZM8.18404 31.9441C8.18404 39.5708 9.53337 45.4668 12.232 49.6321C14.9307 53.7975 18.7734 55.8801 23.76 55.8801C28.7467 55.8801 32.5894 53.7975 35.288 49.6321C38.0454 45.4668 39.424 39.5708 39.424 31.9441C39.424 24.3175 38.0454 18.4215 35.288 14.2561C32.5894 10.0321 28.7467 7.92014 23.76 7.92014C18.7734 7.92014 14.9307 10.0028 12.232 14.1681C9.53337 18.3335 8.18404 24.2588 8.18404 31.9441ZM90.5912 8.36014L77.2152 26.4001C82.0259 27.2801 85.8979 29.3335 88.8312 32.5601C91.7646 35.7868 93.2312 39.7761 93.2312 44.5281C93.2312 50.5708 91.1779 55.2935 87.0712 58.6961C82.9059 62.1575 77.9192 63.8881 72.1112 63.8881C67.3006 63.8881 63.1059 62.8028 59.5272 60.6321C55.9486 58.4615 53.3966 55.3815 51.8712 51.3921L58.7352 47.3441C60.5539 53.0348 65.0126 55.8801 72.1112 55.8801C75.9832 55.8801 79.0926 54.8828 81.4392 52.8881C83.8446 50.8348 85.0472 48.0481 85.0472 44.5281C85.0472 41.0081 83.8446 38.2215 81.4392 36.1681C79.0926 34.1148 75.9832 33.0881 72.1112 33.0881H69.9992L66.7432 28.0721L80.9992 8.80014H53.6312V1.14414H90.5912V8.36014ZM105.43 63.7121C103.846 63.7121 102.497 63.1548 101.382 62.0401C100.268 60.9255 99.7102 59.5761 99.7102 57.9921C99.7102 56.4081 100.268 55.0588 101.382 53.9441C102.497 52.8295 103.846 52.2721 105.43 52.2721C107.073 52.2721 108.422 52.8295 109.478 53.9441C110.593 55.0588 111.15 56.4081 111.15 57.9921C111.15 59.5761 110.593 60.9255 109.478 62.0401C108.422 63.1548 107.073 63.7121 105.43 63.7121Z" fill="#75BF7A"/>
</svg>
