<svg width="132" height="38" viewBox="0 0 132 38" fill="none" xmlns="http://www.w3.org/2000/svg">
<path d="M54.8184 14.2009H50.4966V36H45.5573V14.2009H41.9954V9.68914H45.5573V0.85553H50.4966V9.68914H54.8184V14.2009ZM83.7102 22.5121C83.7102 23.3353 83.6627 24.1585 83.5677 24.9817H61.7686C62.2752 27.0714 63.3042 28.797 64.8556 30.1584C66.4387 31.4882 68.2909 32.1531 70.4122 32.1531C71.9637 32.1531 73.4201 31.7573 74.7816 30.9658C76.1747 30.1742 77.2195 29.0978 77.9161 27.7363H82.8553C81.8421 30.4275 80.1957 32.5964 77.9161 34.2428C75.6364 35.8575 73.0718 36.6649 70.2223 36.6649C66.5179 36.6649 63.3517 35.2876 60.7238 32.533C58.1275 29.7785 56.8294 26.5332 56.8294 22.7971C56.8294 18.966 58.1275 15.7049 60.7238 13.0136C63.32 10.3224 66.5179 8.97675 70.3173 8.97675C74.0217 8.97675 77.172 10.3065 79.7683 12.9661C82.3962 15.6257 83.7102 18.8077 83.7102 22.5121ZM78.7709 21.1823C78.6443 19.0293 77.7261 17.2088 76.0164 15.7207C74.3383 14.2326 72.4228 13.4885 70.2698 13.4885C68.1168 13.4885 66.1854 14.2326 64.4757 15.7207C62.7976 17.2088 61.8953 19.0293 61.7686 21.1823H78.7709ZM100.029 14.0585C98.7939 14.0585 97.6065 14.3751 96.4667 15.0083C94.5354 15.9898 93.5697 18.1903 93.5697 21.6098V36H88.6305V9.68914H93.2372V12.0638H93.3322C94.7253 10.1007 96.9575 9.07174 100.029 8.97675V14.0585ZM129.023 22.5121C129.023 23.3353 128.975 24.1585 128.88 24.9817H107.081C107.588 27.0714 108.617 28.797 110.168 30.1584C111.751 31.4882 113.604 32.1531 115.725 32.1531C117.276 32.1531 118.733 31.7573 120.094 30.9658C121.487 30.1742 122.532 29.0978 123.229 27.7363H128.168C127.155 30.4275 125.508 32.5964 123.229 34.2428C120.949 35.8575 118.385 36.6649 115.535 36.6649C111.831 36.6649 108.664 35.2876 106.036 32.533C103.44 29.7785 102.142 26.5332 102.142 22.7971C102.142 18.966 103.44 15.7049 106.036 13.0136C108.633 10.3224 111.831 8.97675 115.63 8.97675C119.334 8.97675 122.485 10.3065 125.081 12.9661C127.709 15.6257 129.023 18.8077 129.023 22.5121ZM124.084 21.1823C123.957 19.0293 123.039 17.2088 121.329 15.7207C119.651 14.2326 117.735 13.4885 115.582 13.4885C113.429 13.4885 111.498 14.2326 109.788 15.7207C108.11 17.2088 107.208 19.0293 107.081 21.1823H124.084Z" fill="black"/>
<path d="M1.78784 11.8584L5.19312 15.2822L5.25854 15.3477L5.23511 15.4365C4.95053 16.5215 4.80739 17.6608 4.80737 18.8369C4.80737 26.3521 10.9165 32.4609 18.45 32.4609C25.9651 32.4608 32.074 26.3521 32.074 18.8369C32.074 17.6792 31.9309 16.5579 31.6462 15.4727L31.6228 15.3828L31.6882 15.3184L35.0935 11.8945L35.2644 11.7227L35.3572 11.9463C36.23 14.0739 36.7019 16.4014 36.7019 18.8369C36.7019 28.9086 28.5031 37.1074 18.4314 37.1074C8.35979 37.1073 0.160889 28.9085 0.160889 18.8369C0.16092 16.3826 0.651843 14.0556 1.52417 11.9111L1.61597 11.6855L1.78784 11.8584ZM18.4314 0.566406C24.4492 0.566406 29.7944 3.49363 33.1208 7.9834L33.2029 8.09473L33.1052 8.19336L29.8669 11.4316L29.7585 11.2686C27.7569 8.28336 24.6021 6.11747 20.9265 5.43457L20.5691 5.37305C19.8749 5.26627 19.1622 5.21289 18.4314 5.21289C17.7006 5.2129 16.9879 5.26527 16.2937 5.37207L16.2947 5.37305C12.4841 5.97847 9.18887 8.16887 7.1228 11.25L7.01343 11.4131L6.87573 11.2744L3.77612 8.17578L3.67749 8.07715L3.7605 7.96582C7.08709 3.47583 12.4319 0.566483 18.4314 0.566406Z" fill="black" stroke="black" stroke-width="0.321949"/>
<path d="M20.7607 19.4277H16.1143L16.1143 2.3291L20.7607 2.3291L20.7607 19.4277Z" fill="black" stroke="black" stroke-width="0.321949"/>
</svg>
